<mxfile host="app.diagrams.net" agent="Mozilla/5.0 (Macintosh; Intel Mac OS X 10_15_7) AppleWebKit/537.36 (KHTML, like Gecko) Chrome/129.0.0.0 Safari/537.36" version="24.7.16">
  <diagram id="C5RBs43oDa-KdzZeNtuy" name="Page-1">
    <mxGraphModel dx="1405" dy="776" grid="1" gridSize="10" guides="1" tooltips="1" connect="1" arrows="1" fold="1" page="1" pageScale="1" pageWidth="827" pageHeight="1169" math="0" shadow="0">
      <root>
        <mxCell id="WIyWlLk6GJQsqaUBKTNV-0" />
        <mxCell id="WIyWlLk6GJQsqaUBKTNV-1" parent="WIyWlLk6GJQsqaUBKTNV-0" />
        <mxCell id="WIyWlLk6GJQsqaUBKTNV-2" value="" style="rounded=0;html=1;jettySize=auto;orthogonalLoop=1;fontSize=11;endArrow=block;endFill=0;endSize=8;strokeWidth=1;shadow=0;labelBackgroundColor=none;edgeStyle=orthogonalEdgeStyle;" parent="WIyWlLk6GJQsqaUBKTNV-1" source="WIyWlLk6GJQsqaUBKTNV-3" edge="1">
          <mxGeometry relative="1" as="geometry">
            <mxPoint x="310" y="100" as="targetPoint" />
          </mxGeometry>
        </mxCell>
        <mxCell id="WIyWlLk6GJQsqaUBKTNV-3" value="line, column" style="rounded=1;whiteSpace=wrap;html=1;fontSize=12;glass=0;strokeWidth=1;shadow=0;" parent="WIyWlLk6GJQsqaUBKTNV-1" vertex="1">
          <mxGeometry x="250" y="10" width="120" height="40" as="geometry" />
        </mxCell>
        <mxCell id="ilbpKGCURQtbgZ_Rhduj-3" value="InvalidPositionException()" style="rounded=1;whiteSpace=wrap;html=1;" vertex="1" parent="WIyWlLk6GJQsqaUBKTNV-1">
          <mxGeometry y="580" width="150" height="60" as="geometry" />
        </mxCell>
        <mxCell id="ilbpKGCURQtbgZ_Rhduj-9" value="return(&quot; &quot;)" style="rounded=1;whiteSpace=wrap;html=1;" vertex="1" parent="WIyWlLk6GJQsqaUBKTNV-1">
          <mxGeometry x="575" y="680" width="120" height="60" as="geometry" />
        </mxCell>
        <mxCell id="ilbpKGCURQtbgZ_Rhduj-13" value="self.board.get_tile(line, column)" style="rounded=1;whiteSpace=wrap;html=1;" vertex="1" parent="WIyWlLk6GJQsqaUBKTNV-1">
          <mxGeometry x="750" y="670" width="190" height="60" as="geometry" />
        </mxCell>
        <mxCell id="ilbpKGCURQtbgZ_Rhduj-26" value="" style="edgeStyle=orthogonalEdgeStyle;rounded=0;orthogonalLoop=1;jettySize=auto;html=1;" edge="1" parent="WIyWlLk6GJQsqaUBKTNV-1" source="ilbpKGCURQtbgZ_Rhduj-20" target="ilbpKGCURQtbgZ_Rhduj-23">
          <mxGeometry relative="1" as="geometry" />
        </mxCell>
        <mxCell id="ilbpKGCURQtbgZ_Rhduj-34" value="T" style="edgeLabel;html=1;align=center;verticalAlign=middle;resizable=0;points=[];" vertex="1" connectable="0" parent="ilbpKGCURQtbgZ_Rhduj-26">
          <mxGeometry x="-0.6909" relative="1" as="geometry">
            <mxPoint x="10" as="offset" />
          </mxGeometry>
        </mxCell>
        <mxCell id="ilbpKGCURQtbgZ_Rhduj-32" style="edgeStyle=orthogonalEdgeStyle;rounded=0;orthogonalLoop=1;jettySize=auto;html=1;exitX=0;exitY=0.5;exitDx=0;exitDy=0;entryX=0.5;entryY=0;entryDx=0;entryDy=0;" edge="1" parent="WIyWlLk6GJQsqaUBKTNV-1" source="ilbpKGCURQtbgZ_Rhduj-20" target="ilbpKGCURQtbgZ_Rhduj-21">
          <mxGeometry relative="1" as="geometry" />
        </mxCell>
        <mxCell id="ilbpKGCURQtbgZ_Rhduj-33" value="F" style="edgeLabel;html=1;align=center;verticalAlign=middle;resizable=0;points=[];" vertex="1" connectable="0" parent="ilbpKGCURQtbgZ_Rhduj-32">
          <mxGeometry x="-0.7684" relative="1" as="geometry">
            <mxPoint x="22" y="-10" as="offset" />
          </mxGeometry>
        </mxCell>
        <mxCell id="ilbpKGCURQtbgZ_Rhduj-20" value="line &amp;gt; 0" style="rhombus;whiteSpace=wrap;html=1;" vertex="1" parent="WIyWlLk6GJQsqaUBKTNV-1">
          <mxGeometry x="270" y="100" width="80" height="80" as="geometry" />
        </mxCell>
        <mxCell id="ilbpKGCURQtbgZ_Rhduj-43" style="edgeStyle=orthogonalEdgeStyle;rounded=0;orthogonalLoop=1;jettySize=auto;html=1;exitX=0.5;exitY=1;exitDx=0;exitDy=0;entryX=0.5;entryY=0;entryDx=0;entryDy=0;" edge="1" parent="WIyWlLk6GJQsqaUBKTNV-1" source="ilbpKGCURQtbgZ_Rhduj-21" target="ilbpKGCURQtbgZ_Rhduj-3">
          <mxGeometry relative="1" as="geometry" />
        </mxCell>
        <mxCell id="ilbpKGCURQtbgZ_Rhduj-21" value="" style="ellipse;whiteSpace=wrap;html=1;aspect=fixed;" vertex="1" parent="WIyWlLk6GJQsqaUBKTNV-1">
          <mxGeometry x="55" y="420" width="40" height="40" as="geometry" />
        </mxCell>
        <mxCell id="ilbpKGCURQtbgZ_Rhduj-24" style="edgeStyle=orthogonalEdgeStyle;rounded=0;orthogonalLoop=1;jettySize=auto;html=1;exitX=0;exitY=0.5;exitDx=0;exitDy=0;entryX=1;entryY=0;entryDx=0;entryDy=0;" edge="1" parent="WIyWlLk6GJQsqaUBKTNV-1" source="ilbpKGCURQtbgZ_Rhduj-23" target="ilbpKGCURQtbgZ_Rhduj-21">
          <mxGeometry relative="1" as="geometry">
            <Array as="points">
              <mxPoint x="150" y="250" />
              <mxPoint x="150" y="426" />
            </Array>
          </mxGeometry>
        </mxCell>
        <mxCell id="ilbpKGCURQtbgZ_Rhduj-38" value="F" style="edgeLabel;html=1;align=center;verticalAlign=middle;resizable=0;points=[];" vertex="1" connectable="0" parent="ilbpKGCURQtbgZ_Rhduj-24">
          <mxGeometry x="-0.82" relative="1" as="geometry">
            <mxPoint y="-10" as="offset" />
          </mxGeometry>
        </mxCell>
        <mxCell id="ilbpKGCURQtbgZ_Rhduj-28" value="" style="edgeStyle=orthogonalEdgeStyle;rounded=0;orthogonalLoop=1;jettySize=auto;html=1;" edge="1" parent="WIyWlLk6GJQsqaUBKTNV-1" source="ilbpKGCURQtbgZ_Rhduj-23" target="ilbpKGCURQtbgZ_Rhduj-27">
          <mxGeometry relative="1" as="geometry" />
        </mxCell>
        <mxCell id="ilbpKGCURQtbgZ_Rhduj-35" value="T" style="edgeLabel;html=1;align=center;verticalAlign=middle;resizable=0;points=[];" vertex="1" connectable="0" parent="ilbpKGCURQtbgZ_Rhduj-28">
          <mxGeometry x="0.5909" relative="1" as="geometry">
            <mxPoint x="10" as="offset" />
          </mxGeometry>
        </mxCell>
        <mxCell id="ilbpKGCURQtbgZ_Rhduj-23" value="line &amp;lt;= self.board.number_of_lines" style="rhombus;whiteSpace=wrap;html=1;" vertex="1" parent="WIyWlLk6GJQsqaUBKTNV-1">
          <mxGeometry x="200" y="210" width="220" height="80" as="geometry" />
        </mxCell>
        <mxCell id="ilbpKGCURQtbgZ_Rhduj-30" style="edgeStyle=orthogonalEdgeStyle;rounded=0;orthogonalLoop=1;jettySize=auto;html=1;exitX=0;exitY=0.5;exitDx=0;exitDy=0;entryX=1;entryY=0.5;entryDx=0;entryDy=0;" edge="1" parent="WIyWlLk6GJQsqaUBKTNV-1" source="ilbpKGCURQtbgZ_Rhduj-27" target="ilbpKGCURQtbgZ_Rhduj-21">
          <mxGeometry relative="1" as="geometry" />
        </mxCell>
        <mxCell id="ilbpKGCURQtbgZ_Rhduj-39" value="F" style="edgeLabel;html=1;align=center;verticalAlign=middle;resizable=0;points=[];" vertex="1" connectable="0" parent="ilbpKGCURQtbgZ_Rhduj-30">
          <mxGeometry x="-0.8928" y="2" relative="1" as="geometry">
            <mxPoint y="-12" as="offset" />
          </mxGeometry>
        </mxCell>
        <mxCell id="ilbpKGCURQtbgZ_Rhduj-36" value="" style="edgeStyle=orthogonalEdgeStyle;rounded=0;orthogonalLoop=1;jettySize=auto;html=1;" edge="1" parent="WIyWlLk6GJQsqaUBKTNV-1" source="ilbpKGCURQtbgZ_Rhduj-27" target="ilbpKGCURQtbgZ_Rhduj-29">
          <mxGeometry relative="1" as="geometry" />
        </mxCell>
        <mxCell id="ilbpKGCURQtbgZ_Rhduj-37" value="T" style="edgeLabel;html=1;align=center;verticalAlign=middle;resizable=0;points=[];" vertex="1" connectable="0" parent="ilbpKGCURQtbgZ_Rhduj-36">
          <mxGeometry x="-0.3636" relative="1" as="geometry">
            <mxPoint x="10" y="4" as="offset" />
          </mxGeometry>
        </mxCell>
        <mxCell id="ilbpKGCURQtbgZ_Rhduj-27" value="column &amp;gt; 0" style="rhombus;whiteSpace=wrap;html=1;" vertex="1" parent="WIyWlLk6GJQsqaUBKTNV-1">
          <mxGeometry x="270" y="310" width="80" height="80" as="geometry" />
        </mxCell>
        <mxCell id="ilbpKGCURQtbgZ_Rhduj-41" style="edgeStyle=orthogonalEdgeStyle;rounded=0;orthogonalLoop=1;jettySize=auto;html=1;exitX=0;exitY=0.5;exitDx=0;exitDy=0;entryX=1;entryY=1;entryDx=0;entryDy=0;" edge="1" parent="WIyWlLk6GJQsqaUBKTNV-1" source="ilbpKGCURQtbgZ_Rhduj-29" target="ilbpKGCURQtbgZ_Rhduj-21">
          <mxGeometry relative="1" as="geometry">
            <Array as="points">
              <mxPoint x="175" y="460" />
              <mxPoint x="89" y="460" />
            </Array>
          </mxGeometry>
        </mxCell>
        <mxCell id="ilbpKGCURQtbgZ_Rhduj-42" value="F" style="edgeLabel;html=1;align=center;verticalAlign=middle;resizable=0;points=[];" vertex="1" connectable="0" parent="ilbpKGCURQtbgZ_Rhduj-41">
          <mxGeometry x="-0.7498" y="-1" relative="1" as="geometry">
            <mxPoint x="14" as="offset" />
          </mxGeometry>
        </mxCell>
        <mxCell id="ilbpKGCURQtbgZ_Rhduj-45" value="" style="edgeStyle=orthogonalEdgeStyle;rounded=0;orthogonalLoop=1;jettySize=auto;html=1;" edge="1" parent="WIyWlLk6GJQsqaUBKTNV-1" source="ilbpKGCURQtbgZ_Rhduj-29" target="ilbpKGCURQtbgZ_Rhduj-44">
          <mxGeometry relative="1" as="geometry" />
        </mxCell>
        <mxCell id="ilbpKGCURQtbgZ_Rhduj-46" value="T" style="edgeLabel;html=1;align=center;verticalAlign=middle;resizable=0;points=[];" vertex="1" connectable="0" parent="ilbpKGCURQtbgZ_Rhduj-45">
          <mxGeometry x="-0.4711" relative="1" as="geometry">
            <mxPoint y="-10" as="offset" />
          </mxGeometry>
        </mxCell>
        <mxCell id="ilbpKGCURQtbgZ_Rhduj-29" value="column &amp;lt;= self.board.number_of_columns" style="rhombus;whiteSpace=wrap;html=1;" vertex="1" parent="WIyWlLk6GJQsqaUBKTNV-1">
          <mxGeometry x="175" y="440" width="270" height="80" as="geometry" />
        </mxCell>
        <mxCell id="ilbpKGCURQtbgZ_Rhduj-48" style="edgeStyle=orthogonalEdgeStyle;rounded=0;orthogonalLoop=1;jettySize=auto;html=1;exitX=1;exitY=0.5;exitDx=0;exitDy=0;entryX=0.5;entryY=0;entryDx=0;entryDy=0;" edge="1" parent="WIyWlLk6GJQsqaUBKTNV-1" source="ilbpKGCURQtbgZ_Rhduj-44" target="ilbpKGCURQtbgZ_Rhduj-47">
          <mxGeometry relative="1" as="geometry" />
        </mxCell>
        <mxCell id="ilbpKGCURQtbgZ_Rhduj-50" value="F" style="edgeLabel;html=1;align=center;verticalAlign=middle;resizable=0;points=[];" vertex="1" connectable="0" parent="ilbpKGCURQtbgZ_Rhduj-48">
          <mxGeometry x="-0.7659" y="1" relative="1" as="geometry">
            <mxPoint y="-9" as="offset" />
          </mxGeometry>
        </mxCell>
        <mxCell id="ilbpKGCURQtbgZ_Rhduj-52" value="" style="edgeStyle=orthogonalEdgeStyle;rounded=0;orthogonalLoop=1;jettySize=auto;html=1;" edge="1" parent="WIyWlLk6GJQsqaUBKTNV-1" source="ilbpKGCURQtbgZ_Rhduj-44" target="ilbpKGCURQtbgZ_Rhduj-51">
          <mxGeometry relative="1" as="geometry" />
        </mxCell>
        <mxCell id="ilbpKGCURQtbgZ_Rhduj-53" value="T" style="edgeLabel;html=1;align=center;verticalAlign=middle;resizable=0;points=[];" vertex="1" connectable="0" parent="ilbpKGCURQtbgZ_Rhduj-52">
          <mxGeometry x="0.5909" y="1" relative="1" as="geometry">
            <mxPoint x="14" as="offset" />
          </mxGeometry>
        </mxCell>
        <mxCell id="ilbpKGCURQtbgZ_Rhduj-44" value="line == self.line_of_empty_position" style="rhombus;whiteSpace=wrap;html=1;" vertex="1" parent="WIyWlLk6GJQsqaUBKTNV-1">
          <mxGeometry x="500" y="440" width="270" height="80" as="geometry" />
        </mxCell>
        <mxCell id="ilbpKGCURQtbgZ_Rhduj-49" style="edgeStyle=orthogonalEdgeStyle;rounded=0;orthogonalLoop=1;jettySize=auto;html=1;exitX=0.5;exitY=1;exitDx=0;exitDy=0;entryX=0.5;entryY=0;entryDx=0;entryDy=0;" edge="1" parent="WIyWlLk6GJQsqaUBKTNV-1" source="ilbpKGCURQtbgZ_Rhduj-47" target="ilbpKGCURQtbgZ_Rhduj-13">
          <mxGeometry relative="1" as="geometry" />
        </mxCell>
        <mxCell id="ilbpKGCURQtbgZ_Rhduj-47" value="" style="ellipse;whiteSpace=wrap;html=1;aspect=fixed;" vertex="1" parent="WIyWlLk6GJQsqaUBKTNV-1">
          <mxGeometry x="822.5" y="587.5" width="45" height="45" as="geometry" />
        </mxCell>
        <mxCell id="ilbpKGCURQtbgZ_Rhduj-54" value="" style="edgeStyle=orthogonalEdgeStyle;rounded=0;orthogonalLoop=1;jettySize=auto;html=1;" edge="1" parent="WIyWlLk6GJQsqaUBKTNV-1" source="ilbpKGCURQtbgZ_Rhduj-51" target="ilbpKGCURQtbgZ_Rhduj-9">
          <mxGeometry relative="1" as="geometry" />
        </mxCell>
        <mxCell id="ilbpKGCURQtbgZ_Rhduj-55" value="T" style="edgeLabel;html=1;align=center;verticalAlign=middle;resizable=0;points=[];" vertex="1" connectable="0" parent="ilbpKGCURQtbgZ_Rhduj-54">
          <mxGeometry x="-0.1061" y="-1" relative="1" as="geometry">
            <mxPoint x="16" as="offset" />
          </mxGeometry>
        </mxCell>
        <mxCell id="ilbpKGCURQtbgZ_Rhduj-56" style="edgeStyle=orthogonalEdgeStyle;rounded=0;orthogonalLoop=1;jettySize=auto;html=1;exitX=1;exitY=0.5;exitDx=0;exitDy=0;entryX=0;entryY=0.5;entryDx=0;entryDy=0;" edge="1" parent="WIyWlLk6GJQsqaUBKTNV-1" source="ilbpKGCURQtbgZ_Rhduj-51" target="ilbpKGCURQtbgZ_Rhduj-47">
          <mxGeometry relative="1" as="geometry" />
        </mxCell>
        <mxCell id="ilbpKGCURQtbgZ_Rhduj-57" value="F" style="edgeLabel;html=1;align=center;verticalAlign=middle;resizable=0;points=[];" vertex="1" connectable="0" parent="ilbpKGCURQtbgZ_Rhduj-56">
          <mxGeometry x="-0.2639" y="-1" relative="1" as="geometry">
            <mxPoint x="-15" y="16" as="offset" />
          </mxGeometry>
        </mxCell>
        <mxCell id="ilbpKGCURQtbgZ_Rhduj-51" value="column == self.column_of_empty_position" style="rhombus;whiteSpace=wrap;html=1;" vertex="1" parent="WIyWlLk6GJQsqaUBKTNV-1">
          <mxGeometry x="500" y="540" width="270" height="80" as="geometry" />
        </mxCell>
        <mxCell id="ilbpKGCURQtbgZ_Rhduj-58" value="1" style="text;html=1;align=center;verticalAlign=middle;resizable=0;points=[];autosize=1;strokeColor=none;fillColor=none;" vertex="1" parent="WIyWlLk6GJQsqaUBKTNV-1">
          <mxGeometry x="365" y="8" width="30" height="30" as="geometry" />
        </mxCell>
        <mxCell id="ilbpKGCURQtbgZ_Rhduj-61" value="2" style="text;html=1;align=center;verticalAlign=middle;resizable=0;points=[];autosize=1;strokeColor=none;fillColor=none;" vertex="1" parent="WIyWlLk6GJQsqaUBKTNV-1">
          <mxGeometry x="325" y="98" width="30" height="30" as="geometry" />
        </mxCell>
        <mxCell id="ilbpKGCURQtbgZ_Rhduj-62" value="3" style="text;html=1;align=center;verticalAlign=middle;resizable=0;points=[];autosize=1;strokeColor=none;fillColor=none;" vertex="1" parent="WIyWlLk6GJQsqaUBKTNV-1">
          <mxGeometry x="355" y="198" width="30" height="30" as="geometry" />
        </mxCell>
        <mxCell id="ilbpKGCURQtbgZ_Rhduj-63" value="4" style="text;html=1;align=center;verticalAlign=middle;resizable=0;points=[];autosize=1;strokeColor=none;fillColor=none;" vertex="1" parent="WIyWlLk6GJQsqaUBKTNV-1">
          <mxGeometry x="325" y="308" width="30" height="30" as="geometry" />
        </mxCell>
        <mxCell id="ilbpKGCURQtbgZ_Rhduj-64" value="5" style="text;html=1;align=center;verticalAlign=middle;resizable=0;points=[];autosize=1;strokeColor=none;fillColor=none;" vertex="1" parent="WIyWlLk6GJQsqaUBKTNV-1">
          <mxGeometry x="335" y="428" width="30" height="30" as="geometry" />
        </mxCell>
        <mxCell id="ilbpKGCURQtbgZ_Rhduj-66" value="6" style="text;html=1;align=center;verticalAlign=middle;resizable=0;points=[];autosize=1;strokeColor=none;fillColor=none;" vertex="1" parent="WIyWlLk6GJQsqaUBKTNV-1">
          <mxGeometry x="145" y="578" width="30" height="30" as="geometry" />
        </mxCell>
        <mxCell id="ilbpKGCURQtbgZ_Rhduj-67" value="7" style="text;html=1;align=center;verticalAlign=middle;resizable=0;points=[];autosize=1;strokeColor=none;fillColor=none;" vertex="1" parent="WIyWlLk6GJQsqaUBKTNV-1">
          <mxGeometry x="685" y="428" width="30" height="30" as="geometry" />
        </mxCell>
        <mxCell id="ilbpKGCURQtbgZ_Rhduj-68" value="8" style="text;html=1;align=center;verticalAlign=middle;resizable=0;points=[];autosize=1;strokeColor=none;fillColor=none;" vertex="1" parent="WIyWlLk6GJQsqaUBKTNV-1">
          <mxGeometry x="685" y="538" width="30" height="30" as="geometry" />
        </mxCell>
        <mxCell id="ilbpKGCURQtbgZ_Rhduj-69" value="9" style="text;html=1;align=center;verticalAlign=middle;resizable=0;points=[];autosize=1;strokeColor=none;fillColor=none;" vertex="1" parent="WIyWlLk6GJQsqaUBKTNV-1">
          <mxGeometry x="675" y="648" width="30" height="30" as="geometry" />
        </mxCell>
        <mxCell id="ilbpKGCURQtbgZ_Rhduj-70" value="10" style="text;html=1;align=center;verticalAlign=middle;resizable=0;points=[];autosize=1;strokeColor=none;fillColor=none;" vertex="1" parent="WIyWlLk6GJQsqaUBKTNV-1">
          <mxGeometry x="900" y="640" width="40" height="30" as="geometry" />
        </mxCell>
        <mxCell id="ilbpKGCURQtbgZ_Rhduj-71" value="SCPath 1: 1-2(F)-6" style="text;html=1;align=center;verticalAlign=middle;resizable=0;points=[];autosize=1;strokeColor=none;fillColor=none;" vertex="1" parent="WIyWlLk6GJQsqaUBKTNV-1">
          <mxGeometry x="510" y="39" width="120" height="30" as="geometry" />
        </mxCell>
        <mxCell id="ilbpKGCURQtbgZ_Rhduj-72" value="SCPath 2: 1-2(T)-3(T)-4(T)-5(T)-7(F)-10" style="text;html=1;align=center;verticalAlign=middle;resizable=0;points=[];autosize=1;strokeColor=none;fillColor=none;" vertex="1" parent="WIyWlLk6GJQsqaUBKTNV-1">
          <mxGeometry x="450" y="60" width="240" height="30" as="geometry" />
        </mxCell>
        <mxCell id="ilbpKGCURQtbgZ_Rhduj-73" value="SCPath 3: 1-2(T)-3(T)-4(T)-5(T)-7(T)-8(T)-9" style="text;html=1;align=center;verticalAlign=middle;resizable=0;points=[];autosize=1;strokeColor=none;fillColor=none;" vertex="1" parent="WIyWlLk6GJQsqaUBKTNV-1">
          <mxGeometry x="445" y="80" width="250" height="30" as="geometry" />
        </mxCell>
        <mxCell id="ilbpKGCURQtbgZ_Rhduj-74" value="BCPath 1: 1-2(F)-6" style="text;html=1;align=center;verticalAlign=middle;resizable=0;points=[];autosize=1;strokeColor=none;fillColor=none;" vertex="1" parent="WIyWlLk6GJQsqaUBKTNV-1">
          <mxGeometry x="520" y="138" width="120" height="30" as="geometry" />
        </mxCell>
        <mxCell id="ilbpKGCURQtbgZ_Rhduj-75" value="BCPath 2: 1-2(T)-3(F)-6" style="text;html=1;align=center;verticalAlign=middle;resizable=0;points=[];autosize=1;strokeColor=none;fillColor=none;" vertex="1" parent="WIyWlLk6GJQsqaUBKTNV-1">
          <mxGeometry x="505" y="160" width="150" height="30" as="geometry" />
        </mxCell>
        <mxCell id="ilbpKGCURQtbgZ_Rhduj-76" value="BCPath 3: 1-2(T)-3(T)-4(F)-6" style="text;html=1;align=center;verticalAlign=middle;resizable=0;points=[];autosize=1;strokeColor=none;fillColor=none;" vertex="1" parent="WIyWlLk6GJQsqaUBKTNV-1">
          <mxGeometry x="490" y="180" width="180" height="30" as="geometry" />
        </mxCell>
        <mxCell id="ilbpKGCURQtbgZ_Rhduj-77" value="BCPath 4: 1-2(T)-3(T)-4(T)-5(F)-6" style="text;html=1;align=center;verticalAlign=middle;resizable=0;points=[];autosize=1;strokeColor=none;fillColor=none;" vertex="1" parent="WIyWlLk6GJQsqaUBKTNV-1">
          <mxGeometry x="480" y="198" width="200" height="30" as="geometry" />
        </mxCell>
        <mxCell id="ilbpKGCURQtbgZ_Rhduj-78" value="BCPath 5: 1-2(T)-3(T)-4(T)-5(T)-7(F)-10" style="text;html=1;align=center;verticalAlign=middle;resizable=0;points=[];autosize=1;strokeColor=none;fillColor=none;" vertex="1" parent="WIyWlLk6GJQsqaUBKTNV-1">
          <mxGeometry x="460" y="220" width="240" height="30" as="geometry" />
        </mxCell>
        <mxCell id="ilbpKGCURQtbgZ_Rhduj-79" value="BCPath 6: 1-2(T)-3(T)-4(T)-5(T)-7(T)-8(F)-10" style="text;html=1;align=center;verticalAlign=middle;resizable=0;points=[];autosize=1;strokeColor=none;fillColor=none;" vertex="1" parent="WIyWlLk6GJQsqaUBKTNV-1">
          <mxGeometry x="420" y="240" width="260" height="30" as="geometry" />
        </mxCell>
        <mxCell id="ilbpKGCURQtbgZ_Rhduj-80" value="BCPath 7: 1-2(T)-3(T)-4(T)-5(T)-7(T)-8(T)-9" style="text;html=1;align=center;verticalAlign=middle;resizable=0;points=[];autosize=1;strokeColor=none;fillColor=none;" vertex="1" parent="WIyWlLk6GJQsqaUBKTNV-1">
          <mxGeometry x="455" y="260" width="250" height="30" as="geometry" />
        </mxCell>
      </root>
    </mxGraphModel>
  </diagram>
</mxfile>
